<svg height="512" viewBox="0 0 512 512" width="512" xmlns="http://www.w3.org/2000/svg"><g><g fill="#57a4ff"><path d="m128 224h64l64 144z"/><path d="m192 224 40-64h48l40 64z"/><path d="m384 224-128 144 64-144z"/><path d="m256 16c-132.55 0-240 107.45-240 240s107.45 240 240 240 240-107.45 240-240-107.45-240-240-240zm0 440c-110.46 0-200-89.54-200-200s89.54-200 200-200 200 89.54 200 200-89.54 200-200 200z"/><path d="m128 224h64l64 144z"/><path d="m192 224 40-64h48l40 64z"/><path d="m384 224-128 144 64-144z"/><path d="m384 224-128 144 64-144z"/><path d="m256 368-128-144h64z"/><path d="m320 224h-128l40-64h48z"/></g><g fill="#004fac"><path d="m431.36 80.64a248 248 0 1 0 -350.72 350.72 248 248 0 1 0 350.72-350.72zm-11.31 339.41a232 232 0 0 1 -328.1-328.1 232 232 0 0 1 328.1 328.1z"/><path d="m256 48c-114.69 0-208 93.31-208 208s93.31 208 208 208 208-93.31 208-208-93.31-208-208-208zm0 400c-105.87 0-192-86.13-192-192s86.13-192 192-192 192 86.13 192 192-86.13 192-192 192z"/><path d="m390.4 219.2-48-64a8.009 8.009 0 0 0 -6.4-3.2h-160a8.009 8.009 0 0 0 -6.4 3.2l-48 64a7.992 7.992 0 0 0 .42 10.11l116.17 130.69h-54.19a8 8 0 0 0 0 16h112a8 8 0 0 0 0-16h-22.19l116.17-130.69a7.992 7.992 0 0 0 .42-10.11zm-114.83-51.2 30 48h-41.57v-24a8 8 0 0 0 -16 0v24h-41.57l30-48zm-95.57 0h37.57l-30 48h-43.57zm-34.18 64h40.98l40.99 92.22zm110.18 116.3-51.69-116.3h43.69v64a8 8 0 0 0 16 0v-64h43.69zm28.21-24.08 40.99-92.22h40.98zm40.22-108.22-30-48h37.57l36 48z"/><path d="m328 360h-8a8 8 0 0 0 0 16h8a8 8 0 0 0 0-16z"/></g></g></svg>