<svg height="496pt" viewBox="0 -44 496 496" width="496pt" xmlns="http://www.w3.org/2000/svg"><path d="m371.921875 80.183594c-24.476563-45.421875-72.339844-73.292969-123.921875-72.160156-66.960938 0-122.480469 43.597656-133.761719 100.878906-.796875 0-1.519531-.082032-2.238281-.082032-57.441406 0-104 41.921876-104 93.601563 0 49.28125 42.320312 89.519531 96 93.199219v.402344h112v-40h-56l88-110.769532 88 110.769532h-56v40h96v-.402344c62.558594-3.679688 112-50.398438 112-107.597656 0-58.480469-51.601562-105.921876-116.078125-107.839844zm0 0" fill="#57a4ff"/><path d="m376.871094 72.398438c-26.738282-45.625-75.996094-73.289063-128.871094-72.3750005-67.359375 0-125.175781 42.0312505-140.152344 100.8710935-59.847656 1.984375-107.847656 46.765625-107.847656 101.527344 0 52 44.121094 95.902344 100.910156 100.984375.980469.410156 2.03125.621094 3.089844.617188h104v96c0 4.417968 3.582031 8 8 8h64c4.417969 0 8-3.582032 8-8v-96h88c.976562 0 1.941406-.195313 2.839844-.570313 65.886718-4.992187 117.160156-55.28125 117.160156-115.429687 0-61.464844-51.953125-111.457032-119.128906-115.625zm-104.871094 319.625h-48v-136c0-4.421876-3.582031-8-8-8h-39.433594l71.433594-89.914063 71.433594 89.914063h-39.433594c-4.417969 0-8 3.578124-8 8zm103.527344-104.386719c-.65625.042969-1.304688.171875-1.925782.386719h-85.601562v-24h48c3.070312 0 5.871094-1.757813 7.203125-4.523438 1.335937-2.765625.96875-6.050781-.9375-8.453125l-88-110.769531c-1.574219-1.820313-3.859375-2.867188-6.265625-2.867188s-4.691406 1.046875-6.265625 2.867188l-88 110.769531c-1.90625 2.402344-2.273437 5.6875-.9375 8.453125 1.332031 2.765625 4.132813 4.523438 7.203125 4.523438h48v24h-101.503906c-.632813-.207032-1.289063-.335938-1.953125-.378907-49.648438-3.40625-88.542969-40.839843-88.542969-85.222656 0-47.199219 43.03125-85.601563 96.574219-85.601563h.058593c.519532 0 1.046876.050782 1.597657.050782 3.828125 0 7.121093-2.703125 7.859375-6.457032 10.773437-54.679687 63.734375-94.390624 125.910156-94.390624 50.320312 0 96.160156 26.589843 116.800781 67.742187 1.316407 2.632813 3.976563 4.328125 6.917969 4.417969 60.707031 1.804687 108.28125 45.664062 108.28125 99.839844 0 52.414062-45.886719 96.167968-104.472656 99.613281zm0 0" fill="#004fac"/></svg>