<svg height="496pt" viewBox="0 -120 496 496" width="496pt" xmlns="http://www.w3.org/2000/svg"><path d="m176 152-50.96875-26.695312-69.03125 122.695312h240l-69.03125-122.695312zm0 0" fill="#57a4ff"/><path d="m125.039062 125.28125 50.960938 26.71875 50.96875-26.695312 117.03125-61.304688v-33.375c0-12.496094-10.128906-22.625-22.625-22.625h-290.75c-12.496094 0-22.625 10.128906-22.625 22.625v33.375l117.03125 61.304688zm0 0" fill="#57a4ff"/><g fill="#004fac"><path d="m321.375 0h-290.75c-16.90625.0234375-30.6015625 13.71875-30.625 30.625v194.75c.0234375 16.90625 13.71875 30.601562 30.625 30.625h290.75c16.90625-.023438 30.601562-13.71875 30.625-30.625v-194.75c-.023438-16.90625-13.71875-30.6015625-30.625-30.625zm-290.75 16h290.75c8.074219.007812 14.617188 6.550781 14.625 14.625v28.574219l-112.871094 59.089843h-.089844l-.046874.046876-46.992188 24.632812-46.992188-24.570312-.046874-.046876h-.089844l-112.871094-59.152343v-28.574219c.007812-8.074219 6.550781-14.617188 14.625-14.625zm141.664062 143.089844c2.324219 1.214844 5.097657 1.214844 7.421876 0l44.097656-23.089844 58.519531 104h-212.65625l58.519531-104zm-156.289062 66.285156v-148.152344l98.015625 51.335938-62.6875 111.441406h-20.703125c-8.074219-.007812-14.617188-6.550781-14.625-14.625zm305.375 14.625h-20.703125l-62.6875-111.441406 98.015625-51.335938v148.152344c-.007812 8.074219-6.550781 14.617188-14.625 14.625zm0 0"/><path d="m368 48h80c4.417969 0 8-3.582031 8-8s-3.582031-8-8-8h-80c-4.417969 0-8 3.582031-8 8s3.582031 8 8 8zm0 0"/><path d="m488 120h-120c-4.417969 0-8 3.582031-8 8s3.582031 8 8 8h120c4.417969 0 8-3.582031 8-8s-3.582031-8-8-8zm0 0"/><path d="m416 208h-48c-4.417969 0-8 3.582031-8 8s3.582031 8 8 8h48c4.417969 0 8-3.582031 8-8s-3.582031-8-8-8zm0 0"/><path d="m464 208h-24c-4.417969 0-8 3.582031-8 8s3.582031 8 8 8h24c4.417969 0 8-3.582031 8-8s-3.582031-8-8-8zm0 0"/></g></svg>